<?xml version="1.0" encoding="UTF-8"?>
<svg width="80px" height="80px" viewBox="0 0 80 80" version="1.1" xmlns="http://www.w3.org/2000/svg" xmlns:xlink="http://www.w3.org/1999/xlink">
    <!-- Generator: Sketch 61 (89581) - https://sketch.com -->
    <title>Bus Icon</title>
    <desc>Created with Sketch.</desc>
    <defs>
        <path d="M26.5160782,28.5428571 C28.2114408,28.5256211 29.5781107,27.1467391 29.5781107,25.4518634 L29.5781107,8.97996892 C29.5781107,8.55481366 29.4627799,7.45745341 28.4190363,6.475 C27.1907634,5.31444099 25.1090426,4.6939441 22.2257729,4.625 L15.2367271,4.625 L15.2309606,4.625 C12.3534574,4.6939441 10.2717366,5.31444099 9.0376972,6.475 C7.99395356,7.45745341 7.88438931,8.55481366 7.88438931,8.97996892 L7.88438931,25.4518634 C7.88438931,27.1409938 9.2568257,28.5198758 10.9464218,28.5428571 L7.4,32.375 L12.2381266,32.375 L13.3683683,30.8409938 L24.0941317,30.8409938 L25.2243734,32.375 L30.0625,32.375 L26.5160782,28.5428571 Z M9.11266221,31.6223602 L11.9440331,28.5600932 L14.1295515,28.5428571 L11.857535,31.6223602 L9.11266221,31.6223602 Z M15.0637309,28.5428571 L22.3987691,28.5428571 L23.5405439,30.0940994 L13.9161896,30.0940994 L15.0637309,28.5428571 Z M26.4757125,27.7959627 L22.5890649,27.7959627 L22.0124109,27.7902174 L21.8451813,27.7959627 L15.6173187,27.7959627 L15.6230852,27.7902174 L14.8734351,27.7959627 L10.9867875,27.7959627 C9.68931616,27.7959627 8.63403944,26.7445652 8.63403944,25.4518634 L8.63403944,8.97996892 C8.63403944,8.65248445 8.72630407,7.80217391 9.55668575,7.01506211 C10.6465617,5.98664596 12.5610528,5.43509317 15.2424936,5.37189441 L22.2142398,5.37189441 C24.9014472,5.43509317 26.8159383,5.98664596 27.9058142,7.01506211 C28.7361959,7.80217391 28.8284606,8.65248445 28.8284606,8.97996892 L28.8284606,25.4518634 C28.8284606,26.7445652 27.7731839,27.7959627 26.4757125,27.7959627 Z M25.5184669,28.5658385 L28.3498378,31.6281056 L25.604965,31.6281056 L23.3329485,28.5486025 L25.5184669,28.5658385 Z M26.8966698,18.4023292 L26.8966698,10.2439441 C26.8966698,9.65791926 26.4180471,9.18105591 25.82986,9.18105591 L11.5288422,9.18105591 C10.9406552,9.18105591 10.4620324,9.65791926 10.4620324,10.2439441 L10.4620324,18.4023292 C10.4620324,18.988354 10.9406552,19.4652174 11.5288422,19.4652174 L18.5294211,19.4652174 C18.5755534,19.4824534 18.6274523,19.4939441 18.6793512,19.4939441 C18.73125,19.4939441 18.7831488,19.4824534 18.8292812,19.4652174 L25.82986,19.4652174 C26.4180471,19.4652174 26.8966698,18.988354 26.8966698,18.4023292 Z M25.82986,18.718323 L19.0830089,18.718323 L19.0830089,9.9279503 L25.82986,9.9279503 C26.0028563,9.9279503 26.1470197,10.0715839 26.1470197,10.2439441 L26.1470197,18.4023292 C26.1470197,18.5746894 26.0028563,18.718323 25.82986,18.718323 Z M11.2116826,10.2439441 C11.2116826,10.0715839 11.3558461,9.9279503 11.5288422,9.9279503 L18.2756934,9.9279503 L18.2756934,18.718323 L11.5288422,18.718323 C11.3558461,18.718323 11.2116826,18.5746894 11.2116826,18.4023292 L11.2116826,10.2439441 Z M16.4419339,7.65854037 C16.2228054,7.65854037 16.0382761,7.48043478 16.0382761,7.25636646 C16.0382761,7.03229814 16.2170388,6.85419255 16.4419339,6.85419255 L21.0147996,6.85419255 C21.2396946,6.85419255 21.4184574,7.03229814 21.4184574,7.25636646 C21.4184574,7.48043478 21.2396946,7.65854037 21.0147996,7.65854037 L16.4419339,7.65854037 Z M21.0147996,22.1368012 C21.2396946,22.1368012 21.4184574,22.3149068 21.4184574,22.5389752 C21.4184574,22.7630435 21.2396946,22.9411491 21.0147996,22.9411491 L16.4419339,22.9411491 C16.2170388,22.9411491 16.0382761,22.7630435 16.0382761,22.5389752 C16.0382761,22.3149068 16.2170388,22.1368012 16.4419339,22.1368012 L21.0147996,22.1368012 Z M21.0147996,24.4349379 C21.2396946,24.4349379 21.4184574,24.6130435 21.4184574,24.8371118 C21.4184574,25.0611801 21.2396946,25.2392857 21.0147996,25.2392857 L16.4419339,25.2392857 C16.2170388,25.2392857 16.0382761,25.0611801 16.0382761,24.8371118 C16.0382761,24.6130435 16.2170388,24.4349379 16.4419339,24.4349379 L21.0147996,24.4349379 Z M12.3419243,21.4875776 C11.1251845,21.4875776 10.1333397,22.4757764 10.1333397,23.6880435 C10.1333397,24.9003106 11.1251845,25.8885093 12.3419243,25.8885093 C13.5586641,25.8885093 14.5505089,24.9003106 14.5505089,23.6880435 C14.5505089,22.4700311 13.5586641,21.4875776 12.3419243,21.4875776 Z M12.3419243,25.0841615 C11.569208,25.0841615 10.9406552,24.4579192 10.9406552,23.6880435 C10.9406552,22.9181677 11.569208,22.2919255 12.3419243,22.2919255 C13.1146406,22.2919255 13.7431934,22.9181677 13.7431934,23.6880435 C13.7431934,24.4579192 13.1146406,25.0841615 12.3419243,25.0841615 Z M14.0718861,7.90559006 C13.7085942,7.90559006 13.4202672,7.61257764 13.4202672,7.25636646 C13.4202672,6.90015528 13.7085942,6.60714285 14.0718861,6.60714285 C14.4294116,6.60714285 14.7235051,6.90015528 14.7235051,7.25636646 C14.7235051,7.61257764 14.4351781,7.90559006 14.0718861,7.90559006 Z M23.2983492,7.90559006 C22.9350573,7.90559006 22.6467303,7.61257764 22.6467303,7.25636646 C22.6467303,6.90015528 22.9408238,6.60714285 23.2983492,6.60714285 C23.6558747,6.60714285 23.9499682,6.90015528 23.9499682,7.25636646 C23.9499682,7.61257764 23.6616412,7.90559006 23.2983492,7.90559006 Z M25.0283111,21.4875776 C23.8115712,21.4875776 22.8197264,22.4757764 22.8197264,23.6880435 C22.8197264,24.9003106 23.8115712,25.8885093 25.0283111,25.8885093 C26.2450509,25.8885093 27.2368957,24.9003106 27.2368957,23.6880435 C27.2368957,22.4700311 26.2450509,21.4875776 25.0283111,21.4875776 Z M25.0283111,25.0841615 C24.2555948,25.0841615 23.627042,24.4579192 23.627042,23.6880435 C23.627042,22.9181677 24.2555948,22.2919255 25.0283111,22.2919255 C25.8010273,22.2919255 26.4295802,22.9181677 26.4295802,23.6880435 C26.4295802,24.4579192 25.8010273,25.0841615 25.0283111,25.0841615 Z" id="path-1"></path>
    </defs>
    <g id="Bus-Icon" stroke="none" stroke-width="1" fill="none" fill-rule="evenodd">
        <g transform="translate(10.000000, 5.000000)">
            <circle id="Oval" fill="#F45C7E" cx="30" cy="30" r="30"></circle>
            <polygon id="Triangle" fill="#F45C7E" transform="translate(30.000000, 63.500000) scale(1, -1) translate(-30.000000, -63.500000) " points="30 58 38 69 22 69"></polygon>
            <circle id="Oval" fill="#FFFFFF" cx="30" cy="30" r="21"></circle>
            <g id="Transportation-/-train" transform="translate(11.000000, 11.000000)">
                <mask id="mask-2" fill="white">
                    <use xlink:href="#path-1"></use>
                </mask>
                <g id="Mask" transform="translate(18.731250, 18.500000) scale(-1, 1) translate(-18.731250, -18.500000) "></g>
                <g id="Solids/Primary/Metro-Black" mask="url(#mask-2)" fill="#242424" fill-rule="evenodd">
                    <rect id="colour/metro-black" x="0" y="0" width="37" height="37"></rect>
                </g>
            </g>
        </g>
    </g>
</svg>