<?xml version="1.0" encoding="UTF-8"?>
<svg width="80px" height="80px" viewBox="0 0 80 80" version="1.1" xmlns="http://www.w3.org/2000/svg" xmlns:xlink="http://www.w3.org/1999/xlink">
    <!-- Generator: Sketch 61 (89581) - https://sketch.com -->
    <title>Convenience Services Icon</title>
    <desc>Created with Sketch.</desc>
    <defs>
        <path d="M28.767411,13.1417718 L26.5645781,6.01655929 C26.5169861,5.86018536 26.367411,5.75140349 26.2042382,5.75140349 L5.42690109,5.75140349 C5.26372828,5.75140349 5.11415321,5.86018536 5.06656114,6.01655929 L2.86372828,13.1417718 C2.85013055,13.1757661 2.85013055,13.2165593 2.85013055,13.2505536 C2.85013055,15.2086273 4.44106539,16.7995621 6.39913905,16.7995621 C7.73171695,16.7995621 8.91471978,16.0652845 9.51981893,14.9434715 C10.1249181,16.0584856 11.3079209,16.7995621 12.6404988,16.7995621 C14.0342665,16.7995621 15.2444648,15.990497 15.8223685,14.814293 C16.4002722,15.990497 17.6104705,16.7995621 19.0042382,16.7995621 C20.3368161,16.7995621 21.5198189,16.0652845 22.1249181,14.9434715 C22.7300172,16.0584856 23.9130201,16.7995621 25.245598,16.7995621 C27.2036716,16.7995621 28.7946065,15.2086273 28.7946065,13.2505536 C28.7878076,13.2097604 28.7810087,13.1757661 28.767411,13.1417718 Z M25.2387991,16.0448879 C23.8858246,16.0448879 22.7300172,15.0794488 22.4920569,13.7536698 C22.4580626,13.5768992 22.3016886,13.4409219 22.1181192,13.4409219 C21.9345498,13.4409219 21.7781759,13.5701004 21.7441815,13.7536698 C21.5062212,15.0794488 20.3504138,16.0448879 19.0042382,16.0448879 C17.4608954,16.0448879 16.2099039,14.7938964 16.2099039,13.2505536 C16.2099039,13.0397888 16.0399322,12.876616 15.8359662,12.876616 L15.8087708,12.876616 C15.5980059,12.876616 15.4348331,13.0465876 15.4348331,13.2505536 C15.4348331,14.7938964 14.1838416,16.0448879 12.6404988,16.0448879 C11.2875243,16.0448879 10.131717,15.0794488 9.89375661,13.7536698 C9.85976228,13.5768992 9.70338834,13.4409219 9.51981893,13.4409219 C9.33624953,13.4409219 9.17987559,13.5701004 9.14588126,13.7536698 C8.90792092,15.0862477 7.75211355,16.0448879 6.39913905,16.0448879 C4.87619287,16.0448879 3.6387991,14.8210919 3.60480477,13.3049446 L5.70565463,6.50607771 L25.9322835,6.50607771 L28.0331334,13.3049446 C28.0059379,14.8210919 26.7617453,16.0448879 25.2387991,16.0448879 Z M19.2014053,18.7508369 L18.9090541,18.7508369 C18.8206688,18.7508369 18.7322835,18.7916301 18.6778926,18.8664177 L15.6727934,22.7621684 C15.6320002,22.8097604 15.6116036,22.8777491 15.6116036,22.9389389 L15.6116036,23.3060777 C15.6116036,23.4624516 15.7407821,23.5916301 15.897156,23.5916301 L18.4875243,23.5916301 L18.4875243,24.8494205 C18.4875243,25.0057944 18.6167028,25.1349729 18.7730767,25.1349729 L19.1878076,25.1349729 C19.3441815,25.1349729 19.47336,25.0057944 19.47336,24.8494205 L19.47336,23.5916301 L19.9152864,23.5916301 C20.0716603,23.5916301 20.2008388,23.4624516 20.2008388,23.3060777 L20.2008388,22.9117434 C20.2008388,22.7553695 20.0716603,22.626191 19.9152864,22.626191 L19.47336,22.626191 L19.47336,19.0363893 C19.4869577,18.8800154 19.3577793,18.7508369 19.2014053,18.7508369 Z M18.5283175,22.626191 L16.9577793,22.626191 L18.5283175,20.5661344 L18.5283175,22.626191 Z M26.2722269,17.4318567 C26.061462,17.4318567 25.8982892,17.6018284 25.8982892,17.8057944 L25.8982892,20.2193922 L21.6557963,20.2193922 C21.465428,20.2193922 21.3158529,20.3689672 21.3158529,20.5593355 C21.3158529,20.7497038 21.465428,20.8992788 21.6557963,20.8992788 L25.8982892,20.8992788 L25.8982892,22.6941797 L21.6557963,22.6941797 C21.465428,22.6941797 21.3158529,22.8437548 21.3158529,23.034123 C21.3158529,23.2244913 21.465428,23.3740664 21.6557963,23.3740664 L25.8982892,23.3740664 L25.8982892,26.7802987 C25.8982892,27.0726499 25.6603288,27.3106103 25.3679776,27.3106103 L6.26996058,27.3106103 C5.9776093,27.3106103 5.73964896,27.0726499 5.73964896,26.7802987 L5.73964896,23.3740664 C5.73964896,23.3740664 5.73964896,23.3740664 5.73964896,23.3740664 L10.2880909,23.3740664 C10.4784592,23.3740664 10.6280342,23.2244913 10.6280342,23.034123 C10.6280342,22.8437548 10.4784592,22.6941797 10.2880909,22.6941797 L5.73964896,22.6941797 C5.73964896,22.6941797 5.73964896,22.6941797 5.73964896,22.6941797 L5.73964896,20.8992788 C5.73964896,20.8992788 5.73964896,20.8992788 5.73964896,20.8992788 L10.2880909,20.8992788 C10.4784592,20.8992788 10.6280342,20.7497038 10.6280342,20.5593355 C10.6280342,20.3689672 10.4784592,20.2193922 10.2880909,20.2193922 L5.73964896,20.2193922 C5.73964896,20.2193922 5.73964896,20.2193922 5.73964896,20.2193922 L5.73964896,17.8125933 C5.73964896,17.6018284 5.56967729,17.4386556 5.36571128,17.4386556 C5.15494641,17.4386556 4.99177361,17.6086273 4.99177361,17.8125933 L4.99177361,26.7802987 C4.99177361,27.4873808 5.56967729,28.0584856 6.26996058,28.0584856 L25.3679776,28.0584856 C26.0750597,28.0584856 26.6461645,27.480582 26.6461645,26.7802987 L26.6461645,17.8125933 C26.6461645,17.6018284 26.4761929,17.4318567 26.2722269,17.4318567 Z M6.0184025,4.80636099 L25.5175526,4.80636099 C25.7283175,4.80636099 25.8914903,4.63638932 25.8914903,4.43242332 C25.8914903,4.22845731 25.7215187,4.05848564 25.5175526,4.05848564 L6.0184025,4.05848564 C5.80763763,4.05848564 5.64446483,4.22845731 5.64446483,4.43242332 C5.64446483,4.63638932 5.80763763,4.80636099 6.0184025,4.80636099 Z M14.1022552,20.8652845 C13.9662779,20.9536698 13.8167028,21.042055 13.6603288,21.1100437 C13.4767594,21.1916301 13.3067878,21.2664177 13.1504138,21.3480041 C12.8104705,21.5111769 12.531717,21.7015451 12.3277509,21.9055111 C12.1169861,22.116276 11.9606121,22.3338397 11.8518303,22.5582024 C11.7430484,22.782565 11.6682609,23.0069276 11.6410654,23.2244913 C11.6138699,23.4284573 11.5934733,23.6188256 11.5934733,23.7887973 C11.5934733,23.9451712 11.7226518,24.0743497 11.8790257,24.0743497 L15.3328501,24.0743497 C15.489224,24.0743497 15.6184025,23.9451712 15.6184025,23.7887973 L15.6184025,23.4080607 C15.6184025,23.2516868 15.489224,23.1225083 15.3328501,23.1225083 L12.681292,23.1225083 C12.7288841,22.9389389 12.8104705,22.7893638 12.9328501,22.6533865 C13.1368161,22.4358228 13.4359662,22.2386556 13.8303005,22.0686839 C13.959479,22.014293 14.1158529,21.9395055 14.2926235,21.8579191 C14.4829917,21.7695338 14.67336,21.6471542 14.8501305,21.5111769 C15.0337,21.3684007 15.1900739,21.198429 15.3192524,21.0080607 C15.4620286,20.7972958 15.5368161,20.5389389 15.5368161,20.2601854 C15.5368161,20.0494205 15.4960229,19.8454545 15.4076376,19.6482873 C15.3192524,19.4511202 15.1900739,19.2811485 15.0269011,19.1315735 C14.8637283,18.9887973 14.6665611,18.8732165 14.4353997,18.7916301 C14.2110371,18.7100437 13.9526801,18.6692505 13.6671277,18.6692505 C13.3815753,18.6692505 13.1232184,18.7100437 12.8920569,18.798429 C12.6744932,18.8800154 12.477326,18.9751995 12.3141532,19.0771825 C12.1509804,19.1791655 12.0218019,19.2811485 11.9198189,19.3831315 L11.7566461,19.5463043 C11.6478643,19.6550862 11.6410654,19.8386556 11.7566461,19.9542363 L12.0421985,20.2465876 C12.1033883,20.3077774 12.1849747,20.3417718 12.2665611,20.3349729 C12.3481475,20.328174 12.4297339,20.2873808 12.477326,20.2193922 C12.4977226,20.1989956 12.531717,20.1514035 12.6133034,20.0630182 C12.6744932,20.0018284 12.7560796,19.9338397 12.8512637,19.8658511 C12.9464478,19.8046613 13.0552297,19.7434715 13.1844082,19.6958794 C13.3067878,19.6550862 13.449564,19.6278907 13.6059379,19.6278907 C13.7691107,19.6278907 13.9118869,19.6482873 14.0274677,19.6958794 C14.1430484,19.7366726 14.2314337,19.7910635 14.3062212,19.8522533 C14.3742099,19.9134431 14.4218019,19.9814318 14.4557963,20.0562194 C14.4897906,20.1310069 14.5033883,20.1989956 14.5033883,20.2737831 C14.5033883,20.3961627 14.4761929,20.4981457 14.4082042,20.5797321 C14.3266178,20.6817151 14.2246348,20.7836981 14.1022552,20.8652845 Z" id="path-1"></path>
    </defs>
    <g id="Convenience-Services-Icon" stroke="none" stroke-width="1" fill="none" fill-rule="evenodd">
        <g transform="translate(10.000000, 5.000000)">
            <circle id="Oval-Copy-7" fill="#F45C7E" cx="30" cy="30" r="30"></circle>
            <polygon id="Triangle-Copy-4" fill="#F45C7E" transform="translate(30.000000, 63.500000) scale(1, -1) translate(-30.000000, -63.500000) " points="30 58 38 69 22 69"></polygon>
            <circle id="Oval-Copy-8" fill="#FFFFFF" cx="30" cy="30" r="21"></circle>
            <g id="Points-of-Interest-/-Convenience-Store" transform="translate(14.000000, 14.000000)">
                <mask id="mask-2" fill="white">
                    <use xlink:href="#path-1"></use>
                </mask>
                <use id="Mask" fill="#000000" fill-rule="nonzero" xlink:href="#path-1"></use>
                <g id="Solids/Primary/Metro-Black" mask="url(#mask-2)" fill="#242424" fill-rule="evenodd">
                    <rect id="colour/metro-black" x="0" y="0" width="32" height="32"></rect>
                </g>
            </g>
        </g>
    </g>
</svg>