<?xml version="1.0" encoding="UTF-8"?>
<svg width="80px" height="80px" viewBox="0 0 80 80" version="1.1" xmlns="http://www.w3.org/2000/svg" xmlns:xlink="http://www.w3.org/1999/xlink">
    <!-- Generator: Sketch 61 (89581) - https://sketch.com -->
    <title>Dining Icon</title>
    <desc>Created with Sketch.</desc>
    <defs>
        <path d="M28.397522,20.2326302 C28.7414473,19.8064619 28.9507931,19.2606676 28.9507931,18.6700134 C28.9507931,17.6457143 28.3227557,16.7634713 27.433036,16.3821629 L27.433036,14.2214152 C27.7021949,14.124219 27.9414473,13.959733 28.1208865,13.7204806 C28.4049987,13.3466489 28.4947183,12.8756208 28.3676155,12.4270227 C27.9713538,10.9989853 27.1040641,8.93543391 25.197522,7.20085447 C22.9246248,5.12982644 19.7694846,4.06814419 15.8292977,4.04571429 C15.8218211,4.04571429 15.8218211,4.04571429 15.8143445,4.04571429 C15.7919146,4.04571429 15.7694846,4.04571429 15.7470547,4.04571429 C15.7246248,4.04571429 15.7021949,4.04571429 15.679765,4.04571429 C15.6722884,4.04571429 15.6722884,4.04571429 15.6648117,4.04571429 C11.7246248,4.06814419 8.57696128,5.12982644 6.29658745,7.20085447 C4.39004539,8.93543391 3.51527904,10.9989853 3.12649399,12.4270227 C2.99939119,12.8756208 3.09658745,13.3466489 3.37322296,13.7204806 C3.57509212,13.9896395 3.85920427,14.1765554 4.1806996,14.2587984 L4.1806996,16.4644059 C3.3806996,16.8756208 2.82742857,17.713004 2.82742857,18.6700134 C2.82742857,19.2083311 2.99939119,19.7017891 3.28350334,20.1055274 L3.26107343,20.1055274 C3.18630708,20.3073965 3.14144726,20.524219 3.12649399,20.7559947 C3.08163418,21.4363685 3.31340988,22.0793591 3.77696128,22.5728171 C3.79191455,22.5877704 3.79939119,22.595247 3.81434446,22.6102003 L3.81434446,25.3167423 C3.81434446,26.8195461 5.04051268,28.0457143 6.54331642,28.0457143 L25.0180828,28.0457143 C26.5208865,28.0457143 27.7470547,26.8195461 27.7470547,25.3167423 L27.7470547,22.6326302 C27.7694846,22.6102003 27.7919146,22.5877704 27.8068678,22.5653405 C28.2704192,22.0718825 28.5021949,21.4214152 28.4573351,20.748518 C28.479765,20.5690788 28.4498585,20.3971162 28.397522,20.2326302 Z M3.98630708,13.2718825 C3.844251,13.0849666 3.79939119,12.8531909 3.85920427,12.6288919 C4.22555941,11.2980507 5.03303605,9.37655541 6.8124753,7.76160214 C8.96574633,5.80272363 11.9713538,4.80833111 15.7545314,4.80085447 C19.5377089,4.81580774 22.5433164,5.81020027 24.6965874,7.76160214 C26.4760267,9.37655541 27.2835033,11.3055274 27.6498585,12.6288919 C27.7096716,12.8531909 27.6648117,13.0849666 27.5227557,13.2718825 C27.3806996,13.4587984 27.1713538,13.5634713 26.9395781,13.5634713 L15.8143445,13.5634713 L15.7021949,13.5634713 L4.56948465,13.5634713 C4.33770895,13.5634713 4.12088652,13.4513218 3.98630708,13.2718825 Z M5.32462483,16.1877704 C5.30219493,16.1877704 5.27976502,16.1877704 5.25733511,16.1877704 L4.94331642,16.1877704 L4.94331642,14.3036582 L15.7021949,14.3036582 L15.8143445,14.3036582 L26.6928491,14.3036582 L26.6928491,16.1877704 L26.5433164,16.1877704 C26.5208865,16.1877704 26.4984566,16.1877704 26.4760267,16.1877704 L5.32462483,16.1877704 Z M23.1863071,16.8158077 L19.3806996,20.8083311 L15.5750921,16.8158077 L23.1863071,16.8158077 Z M3.59004539,18.6700134 C3.59004539,17.7354339 4.33023231,16.9728171 5.25733511,16.9354339 L14.6180828,16.9354339 L17.9601389,20.3971162 L5.32462483,20.3971162 C4.36761549,20.4045928 3.59004539,19.6270227 3.59004539,18.6700134 Z M27.0292977,25.3167423 C27.0292977,26.4083311 26.1395781,27.2980507 25.0479893,27.2980507 L6.56574633,27.2980507 C5.47415754,27.2980507 4.58443792,26.4083311 4.58443792,25.3167423 L4.58443792,23.1260881 C4.89097997,23.2606676 5.22742857,23.3354339 5.57135381,23.3354339 C6.19191455,23.3354339 6.76761549,23.1036582 7.21621362,22.6924433 C7.91154072,23.8214152 9.14518558,24.524219 10.4984566,24.524219 C11.7919146,24.524219 12.9956529,23.866275 13.7059332,22.8120694 C14.1470547,23.2980507 14.7526622,23.6270227 15.4106061,23.7167423 L15.4479893,23.724219 C15.5003258,23.7316956 15.5451856,23.7391722 15.5900454,23.7391722 L15.597522,23.7391722 C15.6049987,23.7391722 15.6199519,23.7391722 15.6274286,23.7391722 C15.6947183,23.7466489 15.7545314,23.7466489 15.8068678,23.7466489 C15.8068678,23.7466489 15.8068678,23.7466489 15.8068678,23.7466489 C15.8592043,23.7466489 15.9190174,23.7466489 15.9863071,23.7391722 L16.0236903,23.7391722 C16.0760267,23.7316956 16.1208865,23.7316956 16.173223,23.724219 L16.2106061,23.7167423 C16.8685501,23.6195461 17.4741575,23.2980507 17.915279,22.8120694 C18.6255594,23.8737517 19.8292977,24.524219 21.1227557,24.524219 C22.4760267,24.524219 23.7096716,23.8214152 24.4049987,22.6924433 C24.8461202,23.1036582 25.4292977,23.3354339 26.0498585,23.3354339 C26.3788304,23.3354339 26.7078024,23.2681442 27.0143445,23.1335648 L27.0143445,25.3167423 L27.0292977,25.3167423 Z M27.29098,22.0644059 C26.9694846,22.4083311 26.5358398,22.595247 26.0648117,22.595247 C25.4965874,22.595247 24.973223,22.3111348 24.6592043,21.8326302 C24.5844379,21.7204806 24.4498585,21.6531909 24.315279,21.6681442 C24.1806996,21.6830975 24.0610734,21.7653405 24.0012603,21.8924433 C23.5078024,23.0438451 22.3863071,23.784032 21.1377089,23.784032 C19.926494,23.784032 18.8124753,23.0737517 18.3115407,21.9672096 C18.2517276,21.8401068 18.1246248,21.7578638 17.9900454,21.7503872 C17.9825688,21.7503872 17.9825688,21.7503872 17.9750921,21.7503872 C17.8405127,21.7503872 17.7134099,21.8251535 17.6535968,21.9373031 C17.3321015,22.4980507 16.7638772,22.8868358 16.1283632,22.9765554 L16.1059332,22.9765554 C16.0685501,22.984032 16.0311669,22.984032 15.9937837,22.9915087 L15.9638772,22.9915087 C15.9190174,22.9915087 15.8816342,22.9989853 15.8367744,22.9989853 C15.8292977,22.9989853 15.8292977,22.9989853 15.8218211,22.9989853 C15.7769613,22.9989853 15.7395781,22.9989853 15.6947183,22.9915087 L15.6648117,22.9915087 C15.6274286,22.9915087 15.5900454,22.984032 15.5526622,22.9765554 L15.5302323,22.9765554 C14.8947183,22.8868358 14.326494,22.4980507 14.0049987,21.9373031 C13.9377089,21.8176769 13.8031295,21.7429105 13.6610734,21.7503872 C13.5190174,21.7578638 13.3993912,21.8401068 13.3395781,21.9672096 C12.8311669,23.066275 11.7246248,23.784032 10.5134099,23.784032 C9.26481175,23.784032 8.14331642,23.0438451 7.64985848,21.8924433 C7.59752203,21.7653405 7.47789586,21.6756208 7.33583979,21.6681442 C7.20126035,21.6531909 7.06668091,21.7204806 6.99191455,21.8326302 C6.67789586,22.3111348 6.15453138,22.595247 5.58630708,22.595247 C5.11527904,22.595247 4.68163418,22.4083311 4.36013885,22.0644059 C4.03864352,21.7204806 3.88163418,21.2718825 3.91154072,20.8008545 C3.91154072,20.7709479 3.91901736,20.7335648 3.91901736,20.7036582 C4.32275567,20.9877704 4.80873698,21.1522563 5.33210147,21.1522563 L18.6853725,21.1522563 L18.9395781,21.4139386 C18.9545314,21.4288919 18.962008,21.4363685 18.9769613,21.4438451 C19.0891108,21.5260881 19.2386435,21.5634713 19.3881762,21.5634713 C19.5377089,21.5634713 19.6872417,21.5260881 19.7993912,21.4438451 C19.8143445,21.4363685 19.8292977,21.4214152 19.8367744,21.4139386 L20.09098,21.1522563 L26.4760267,21.1522563 C26.9395781,21.1522563 27.373223,21.0251535 27.7470547,20.8008545 C27.7470547,20.8008545 27.7470547,20.8008545 27.7470547,20.8008545 C27.7769613,21.2718825 27.6124753,21.7204806 27.29098,22.0644059 Z M26.4760267,20.4045928 L20.808737,20.4045928 L24.1507931,16.9429105 L26.5358398,16.9429105 C27.4629426,16.9802937 28.2031295,17.7429105 28.2031295,18.67749 C28.2031295,19.6270227 27.4255594,20.4045928 26.4760267,20.4045928 Z M17.8180828,7.0812283 C17.8778959,7.08870494 23.5377089,7.58963952 25.4965874,12.4644059 C25.5564005,12.6139386 25.6984566,12.6961816 25.8405127,12.6961816 C25.8853725,12.6961816 25.9302323,12.6887049 25.9825688,12.666275 C26.1769613,12.5915087 26.2666809,12.3746862 26.1919146,12.1802937 C25.3096716,9.98216288 23.5900454,8.27748999 21.2199519,7.23823765 C19.4405127,6.46066756 17.9377089,6.33356475 17.8778959,6.32608812 C17.6685501,6.31113485 17.4891108,6.46066756 17.4741575,6.67001335 C17.4592043,6.87935915 17.608737,7.0587984 17.8180828,7.0812283 Z M11.1136772,8.44163058 C11.4357542,8.44163058 11.6968492,8.18053559 11.6968492,7.8584586 C11.6968492,7.53638161 11.4357542,7.27528662 11.1136772,7.27528662 C10.7916002,7.27528662 10.5305052,7.53638161 10.5305052,7.8584586 C10.5305052,8.18053559 10.7916002,8.44163058 11.1136772,8.44163058 Z M14.4242205,9.90572363 C14.7462887,9.90572363 15.0073766,9.64463576 15.0073766,9.32256756 C15.0073766,9.00049935 14.7462887,8.73941148 14.4242205,8.73941148 C14.1021523,8.73941148 13.8410645,9.00049935 13.8410645,9.32256756 C13.8410645,9.64463576 14.1021523,9.90572363 14.4242205,9.90572363 Z M10.0423818,10.67749 C10.3644619,10.67749 10.6255594,10.4163925 10.6255594,10.0943124 C10.6255594,9.77223234 10.3644619,9.51113485 10.0423818,9.51113485 C9.72030176,9.51113485 9.45920427,9.77223234 9.45920427,10.0943124 C9.45920427,10.4163925 9.72030176,10.67749 10.0423818,10.67749 Z" id="path-1"></path>
    </defs>
    <g id="Dining-Icon" stroke="none" stroke-width="1" fill="none" fill-rule="evenodd">
        <g transform="translate(10.000000, 5.000000)">
            <circle id="Oval-Copy" fill="#F45C7E" cx="30" cy="30" r="30"></circle>
            <polygon id="Triangle-Copy" fill="#F45C7E" transform="translate(30.000000, 63.500000) scale(1, -1) translate(-30.000000, -63.500000) " points="30 58 38 69 22 69"></polygon>
            <circle id="Oval-Copy-2" fill="#FFFFFF" cx="30" cy="30" r="21"></circle>
            <g id="Points-of-Interest-/-Fast-Food" transform="translate(14.000000, 13.000000)">
                <mask id="mask-2" fill="white">
                    <use xlink:href="#path-1"></use>
                </mask>
                <use id="Mask" fill="#000000" fill-rule="nonzero" xlink:href="#path-1"></use>
                <g id="Solids/Primary/Metro-Black" mask="url(#mask-2)" fill="#242424" fill-rule="evenodd">
                    <rect id="colour/metro-black" x="0" y="0" width="32" height="32"></rect>
                </g>
            </g>
        </g>
    </g>
</svg>