<?xml version="1.0" encoding="UTF-8"?>
<svg width="80px" height="80px" viewBox="0 0 80 80" version="1.1" xmlns="http://www.w3.org/2000/svg" xmlns:xlink="http://www.w3.org/1999/xlink">
    <!-- Generator: Sketch 61 (89581) - https://sketch.com -->
    <title>Healthcare Icon</title>
    <desc>Created with Sketch.</desc>
    <defs>
        <path d="M26.7315176,26.7251009 L24.6312741,26.7251009 L24.6312741,8.58386715 C24.6312741,7.68898078 23.9251053,6.95237364 23.0423943,6.90367234 L23.0423943,3.50675676 C23.0423943,3.03800676 22.6223456,2.65448403 22.1109819,2.65448403 L8.20067348,2.65448403 C7.68930985,2.65448403 7.26926114,3.03800676 7.26926114,3.50675676 L7.26926114,6.89758468 C6.36219946,6.92193533 5.62559231,7.66463013 5.62559231,8.58386715 L5.62559231,26.7251009 L3.03224816,26.7251009 C2.84353062,26.7251009 2.69133907,26.8772925 2.69133907,27.06601 C2.69133907,27.2547275 2.84353062,27.4069191 3.03224816,27.4069191 L5.96041374,27.4069191 L24.290365,27.4069191 L26.72543,27.4069191 C26.9141475,27.4069191 27.0663391,27.2547275 27.0663391,27.06601 C27.0663391,26.8772925 26.9202352,26.7251009 26.7315176,26.7251009 Z M7.94499166,3.50675676 C7.94499166,3.42152948 8.04848192,3.33021455 8.20067348,3.33021455 L22.1109819,3.33021455 C22.2631735,3.33021455 22.3666637,3.42761715 22.3666637,3.50675676 L22.3666637,6.89758468 L21.8796508,6.89758468 L21.8796508,5.44872104 C21.8796508,4.81560416 21.3621995,4.29815286 20.7290826,4.29815286 L9.55213452,4.29815286 C8.91901764,4.29815286 8.40156634,4.81560416 8.40156634,5.44872104 L8.40156634,6.89758468 L7.938904,6.89758468 L7.938904,3.50675676 L7.94499166,3.50675676 Z M21.2039202,5.4548087 L21.2039202,13.3139808 C21.2039202,13.5757503 20.9908521,13.7888184 20.7290826,13.7888184 L9.55213452,13.7888184 C9.29036504,13.7888184 9.07729686,13.5757503 9.07729686,13.3139808 L9.07729686,5.4548087 C9.07729686,5.19303922 9.29036504,4.97997104 9.55213452,4.97997104 L20.7290826,4.97997104 C20.9969397,4.97997104 21.2039202,5.19303922 21.2039202,5.4548087 Z M14.8118748,26.7251009 L11.25668,26.7251009 L11.25668,21.8306204 C11.25668,21.7453931 11.3601702,21.6540782 11.5123618,21.6540782 L14.8118748,21.6540782 L14.8118748,26.7251009 Z M18.6714527,26.7251009 L15.420641,26.7251009 L15.420641,21.6540782 L18.4157709,21.6540782 C18.5679624,21.6540782 18.6714527,21.7453931 18.6714527,21.8306204 L18.6714527,26.7251009 Z M23.9555436,26.7251009 L19.3410956,26.7251009 L19.3410956,21.8306204 C19.3410956,21.3618704 18.9210469,20.9783477 18.4096832,20.9783477 L11.5123618,20.9783477 C11.0009982,20.9783477 10.5809495,21.3618704 10.5809495,21.8306204 L10.5809495,26.7251009 L6.30132283,26.7251009 L6.30132283,8.58386715 C6.30132283,8.02988987 6.75180985,7.5733152 7.31187478,7.5733152 L8.407654,7.5733152 L8.407654,13.3078931 C8.407654,13.94101 8.9251053,14.4584613 9.55822218,14.4584613 L20.7351702,14.4584613 C21.3682871,14.4584613 21.8857384,13.94101 21.8857384,13.3078931 L21.8857384,7.5733152 L22.9510793,7.5733152 C23.5050566,7.5733152 23.9616313,8.02380221 23.9616313,8.58386715 L23.9616313,26.7251009 L23.9555436,26.7251009 Z M16.9121183,6.34969507 C16.7234008,6.34969507 16.5712092,6.50188663 16.5712092,6.69060416 L16.5712092,9.31438663 L13.6795696,9.31438663 L13.6795696,6.69060416 C13.6795696,6.50188663 13.527378,6.34969507 13.3386605,6.34969507 C13.149943,6.34969507 12.9977514,6.50188663 12.9977514,6.69060416 L12.9977514,12.102536 C12.9977514,12.2912535 13.149943,12.4434451 13.3386605,12.4434451 C13.527378,12.4434451 13.6795696,12.2912535 13.6795696,12.102536 L13.6795696,9.99011715 L16.5712092,9.99011715 L16.5712092,12.102536 C16.5712092,12.2912535 16.7234008,12.4434451 16.9121183,12.4434451 C17.1008358,12.4434451 17.2530274,12.2912535 17.2530274,12.102536 L17.2530274,6.69060416 C17.2530274,6.50188663 17.1008358,6.34969507 16.9121183,6.34969507 Z M11.2079787,17.6605717 L8.407654,17.6605717 C8.21893647,17.6605717 8.06674491,17.8127633 8.06674491,18.0014808 C8.06674491,18.1901983 8.21893647,18.3423899 8.407654,18.3423899 L11.2079787,18.3423899 C11.3966962,18.3423899 11.5488878,18.1901983 11.5488878,18.0014808 C11.5488878,17.8127633 11.3906085,17.6605717 11.2079787,17.6605717 Z M16.5285956,17.6605717 L13.7282709,17.6605717 C13.5395534,17.6605717 13.3873618,17.8127633 13.3873618,18.0014808 C13.3873618,18.1901983 13.5395534,18.3423899 13.7282709,18.3423899 L16.5285956,18.3423899 C16.7173131,18.3423899 16.8695047,18.1901983 16.8695047,18.0014808 C16.8695047,17.8127633 16.7173131,17.6605717 16.5285956,17.6605717 Z M21.8370371,17.6605717 L19.0367124,17.6605717 C18.8479949,17.6605717 18.6958034,17.8127633 18.6958034,18.0014808 C18.6958034,18.1901983 18.8479949,18.3423899 19.0367124,18.3423899 L21.8370371,18.3423899 C22.0257547,18.3423899 22.1779462,18.1901983 22.1779462,18.0014808 C22.1779462,17.8127633 22.0257547,17.6605717 21.8370371,17.6605717 Z" id="path-1"></path>
    </defs>
    <g id="Healthcare-Icon" stroke="none" stroke-width="1" fill="none" fill-rule="evenodd">
        <g transform="translate(10.000000, 5.000000)">
            <circle id="Oval-Copy-5" fill="#F45C7E" cx="30" cy="30" r="30"></circle>
            <polygon id="Triangle-Copy-3" fill="#F45C7E" transform="translate(30.000000, 63.500000) scale(1, -1) translate(-30.000000, -63.500000) " points="30 58 38 69 22 69"></polygon>
            <circle id="Oval-Copy-6" fill="#FFFFFF" cx="30" cy="30" r="21"></circle>
            <g id="Points-of-Interest-/-Hospital" transform="translate(15.000000, 14.000000)">
                <mask id="mask-2" fill="white">
                    <use xlink:href="#path-1"></use>
                </mask>
                <use id="Mask" fill="#000000" fill-rule="nonzero" xlink:href="#path-1"></use>
                <g id="Solids/Primary/Metro-Black" mask="url(#mask-2)" fill="#242424" fill-rule="evenodd">
                    <rect id="colour/metro-black" x="0" y="0" width="30" height="30"></rect>
                </g>
            </g>
        </g>
    </g>
</svg>