<?xml version="1.0" encoding="UTF-8"?>
<svg width="80px" height="80px" viewBox="0 0 80 80" version="1.1" xmlns="http://www.w3.org/2000/svg" xmlns:xlink="http://www.w3.org/1999/xlink">
    <!-- Generator: Sketch 61 (89581) - https://sketch.com -->
    <title>Shopping Icon</title>
    <desc>Created with Sketch.</desc>
    <defs>
        <path d="M24.1330218,7.82080923 L21.2059724,7.82080923 L21.2059724,6.08002206 C21.2059724,3.86894159 19.4090308,2.072 17.1979504,2.072 C16.6153482,2.072 16.0608233,2.19834746 15.5554334,2.42296515 C15.0570629,2.19834746 14.502538,2.072 13.9129165,2.072 C11.701836,2.072 9.90489446,3.86894159 9.90489446,6.08002206 L9.90489446,7.82080923 L6.76024668,7.82080923 C5.91091101,7.82080923 5.216,8.51572023 5.216,9.3650559 L5.216,28.5277533 C5.216,29.377089 5.91091101,30.072 6.76024668,30.072 L20.5251,30.072 L20.756737,30.072 L24.1260025,30.072 C24.9753382,30.072 25.6703019,29.377089 25.6703019,28.5277533 L25.6703019,9.3650559 C25.6772685,8.51572023 24.9823575,7.82080923 24.1330218,7.82080923 Z M17.1979504,2.77393031 C19.0229692,2.77393031 20.5040421,4.25500326 20.5040421,6.08002206 L20.5040421,7.82080923 L17.9279579,7.82080923 L17.9279579,6.08002206 C17.9279579,4.78145099 17.3032399,3.62326598 16.3415954,2.88623916 C16.6153482,2.81604613 16.9031396,2.77393031 17.1979504,2.77393031 Z M15.5554334,3.2091271 C16.5521745,3.77769065 17.2190083,4.85164402 17.2190083,6.08002206 L17.2190083,7.82080923 L13.8918586,7.82080923 L13.8918586,6.08002206 C13.8918586,4.85164402 14.5657117,3.78470995 15.5554334,3.2091271 Z M10.6138441,6.08002206 C10.6138441,4.25500326 12.094917,2.77393031 13.9199358,2.77393031 C14.2147466,2.77393031 14.502538,2.81604613 14.7833101,2.88623916 C13.8146463,3.62326598 13.1899283,4.78145099 13.1899283,6.08002206 L13.1899283,7.82080923 L10.6138441,7.82080923 L10.6138441,6.08002206 L10.6138441,6.08002206 Z M20.5321193,29.3700697 L6.76726598,29.3700697 C6.30399198,29.3700697 5.92494961,28.9910273 5.92494961,28.5277533 L5.92494961,9.3650559 C5.92494961,8.9017819 6.30399198,8.52273953 6.76726598,8.52273953 L9.91191376,8.52273953 L9.91191376,10.8882447 C9.26613788,11.0496886 8.78882527,11.6252715 8.78882527,12.3201825 C8.78882527,13.1344217 9.44863976,13.7942361 10.2628789,13.7942361 C11.0771181,13.7942361 11.7369326,13.1344217 11.7369326,12.3201825 C11.7369326,11.6252715 11.25962,11.0496886 10.6138441,10.8882447 L10.6138441,8.52273953 L17.2260276,8.52273953 L17.2260276,10.8882447 C16.5802517,11.0496886 16.1029391,11.6252715 16.1029391,12.3201825 C16.1029391,13.1344217 16.7627536,13.7942361 17.5769927,13.7942361 C18.3912319,13.7942361 19.0510464,13.1344217 19.0510464,12.3201825 C19.0510464,11.6252715 18.5737338,11.0496886 17.9279579,10.8882447 L17.9279579,8.52273953 L20.5321193,8.52273953 L20.7637563,8.52273953 C21.2270303,8.52273953 21.6060727,8.9017819 21.6060727,9.3650559 L21.6060727,28.5277533 C21.6060727,28.9910273 21.2270303,29.3700697 20.7637563,29.3700697 L20.5321193,29.3700697 Z M10.2628789,12.4886458 C10.4594194,12.4886458 10.6138441,12.3342211 10.6138441,12.1376806 L10.6138441,11.6322908 C10.866539,11.7586383 11.0350023,12.0183525 11.0350023,12.3201825 C11.0350023,12.74836 10.6910564,13.0923058 10.2628789,13.0923058 C9.83470143,13.0923058 9.49075558,12.74836 9.49075558,12.3201825 C9.49075558,12.0183525 9.65921885,11.7586383 9.91191376,11.6322908 L9.91191376,12.1376806 C9.91191376,12.3342211 10.0663384,12.4886458 10.2628789,12.4886458 Z M17.5769927,12.4886458 C17.7735332,12.4886458 17.9279579,12.3342211 17.9279579,12.1376806 L17.9279579,11.6322908 C18.1806528,11.7586383 18.3491161,12.0183525 18.3491161,12.3201825 C18.3491161,12.74836 18.0051702,13.0923058 17.5769927,13.0923058 C17.1488152,13.0923058 16.8048694,12.74836 16.8048694,12.3201825 C16.8048694,12.0183525 16.9733327,11.7586383 17.2260276,11.6322908 L17.2260276,12.1376806 C17.2260276,12.3342211 17.3804522,12.4886458 17.5769927,12.4886458 Z M24.9753382,28.5277533 C24.9753382,28.9910273 24.5962958,29.3700697 24.1330218,29.3700697 L22.0553081,29.3700697 C22.2167521,29.1243941 22.308003,28.8366027 22.308003,28.5277533 L22.308003,9.3650559 C22.308003,9.05620657 22.2167521,8.76139584 22.0553081,8.52273953 L24.1330218,8.52273953 C24.5962958,8.52273953 24.9753382,8.9017819 24.9753382,9.3650559 L24.9753382,28.5277533 Z" id="path-1"></path>
    </defs>
    <g id="Shopping-Icon" stroke="none" stroke-width="1" fill="none" fill-rule="evenodd">
        <g transform="translate(10.000000, 5.000000)">
            <circle id="Oval-Copy-3" fill="#F45C7E" cx="30" cy="30" r="30"></circle>
            <polygon id="Triangle-Copy-2" fill="#F45C7E" transform="translate(30.000000, 63.500000) scale(1, -1) translate(-30.000000, -63.500000) " points="30 58 38 69 22 69"></polygon>
            <circle id="Oval-Copy-4" fill="#FFFFFF" cx="30" cy="30" r="21"></circle>
            <g id="Points-of-Interest-/-Shopping-Mall" transform="translate(15.000000, 13.000000)">
                <mask id="mask-2" fill="white">
                    <use xlink:href="#path-1"></use>
                </mask>
                <use id="Mask" fill="#000000" fill-rule="nonzero" xlink:href="#path-1"></use>
                <g id="Solids/Primary/Metro-Black" mask="url(#mask-2)" fill="#242424" fill-rule="evenodd">
                    <rect id="colour/metro-black" x="0" y="0" width="32" height="32"></rect>
                </g>
            </g>
        </g>
    </g>
</svg>