<?xml version="1.0" encoding="UTF-8"?>
<svg width="80px" height="80px" viewBox="0 0 80 80" version="1.1" xmlns="http://www.w3.org/2000/svg" xmlns:xlink="http://www.w3.org/1999/xlink">
    <!-- Generator: Sketch 61 (89581) - https://sketch.com -->
    <title>Chat bubble</title>
    <desc>Created with Sketch.</desc>
    <defs>
        <path d="M4.921875,10.5474375 L14.765625,10.5474375 C15.1531875,10.5474375 15.46875,10.861875 15.46875,11.25 C15.46875,11.6386875 15.1531875,11.9536875 14.765625,11.9536875 L4.921875,11.9536875 C4.5343125,11.9536875 4.21875,11.6386875 4.21875,11.25 C4.21875,10.861875 4.5343125,10.5474375 4.921875,10.5474375 L4.921875,10.5474375 Z M18.984375,7.7349375 L4.921875,7.7349375 C4.5343125,7.7349375 4.21875,7.4199375 4.21875,7.03125 C4.21875,6.643125 4.5343125,6.328125 4.921875,6.328125 L18.984375,6.328125 C19.3719375,6.328125 19.6875,6.643125 19.6875,7.03125 C19.6875,7.4199375 19.3719375,7.7349375 18.984375,7.7349375 L18.984375,7.7349375 Z M22.5,2.109375 C22.5,1.7218125 22.1844375,1.4068125 21.796875,1.4068125 L2.109375,1.4068125 C1.7218125,1.4068125 1.40625,1.7218125 1.40625,2.109375 L1.40625,16.171875 C1.40625,16.56 1.7218125,16.8755625 2.109375,16.8755625 L6.328125,16.8755625 C6.7156875,16.8755625 7.03125,17.19 7.03125,17.5786875 L7.03125,21.5055 L11.4530625,17.08425 C11.5183125,17.0173125 11.597625,16.9655625 11.6848125,16.929 C11.764125,16.8969375 11.8485,16.88175 11.932875,16.8789375 C11.939625,16.8789375 11.94525,16.8755625 11.9525625,16.8755625 L21.796875,16.8755625 C22.1844375,16.8755625 22.5,16.56 22.5,16.171875 L22.5,2.109375 Z M21.796875,18.2818125 L12.2439375,18.2818125 L6.825375,23.6998125 C6.6909375,23.835375 6.5109375,23.90625 6.328125,23.90625 C6.2375625,23.90625 6.145875,23.889375 6.0586875,23.8528125 C5.7965625,23.74425 5.625,23.48775 5.625,23.2036875 L5.625,18.2818125 L2.109375,18.2818125 C0.946125,18.2818125 0,17.335125 0,16.171875 L0,2.109375 C0,0.946125 0.946125,0 2.109375,0 L21.796875,0 C22.960125,0 23.90625,0.946125 23.90625,2.109375 L23.90625,16.171875 C23.90625,17.335125 22.960125,18.2818125 21.796875,18.2818125 L21.796875,18.2818125 Z M31.640625,25.3130625 L26.71875,25.3130625 L26.71875,30.234375 C26.71875,30.519 26.5471875,30.7755 26.2850625,30.884625 C26.197875,30.920625 26.1061875,30.9380625 26.015625,30.9380625 C25.8328125,30.9380625 25.6528125,30.866625 25.518375,30.7310625 L20.100375,25.3130625 L14.0625,25.3130625 C13.2868125,25.3130625 12.65625,24.6825 12.65625,23.90625 L12.65625,21.7974375 C12.65625,21.4093125 12.9718125,21.0943125 13.359375,21.0943125 C13.7469375,21.0943125 14.0625,21.4093125 14.0625,21.7974375 L14.0625,23.90625 L20.390625,23.90625 C20.48175,23.90625 20.5734375,23.9248125 20.6589375,23.96025 C20.745,23.99625 20.82375,24.0474375 20.887875,24.1126875 L25.3125,28.53675 L25.3125,24.609375 C25.3125,24.22125 25.6280625,23.90625 26.015625,23.90625 L31.640625,23.90625 C32.0281875,23.90625 32.34375,23.59125 32.34375,23.2036875 L32.34375,10.5474375 C32.34375,10.159875 32.0281875,9.84375 31.640625,9.84375 L27.421875,9.84375 C27.0343125,9.84375 26.71875,9.5293125 26.71875,9.1411875 C26.71875,8.7525 27.0343125,8.4380625 27.421875,8.4380625 L31.640625,8.4380625 C32.803875,8.4380625 33.75,9.383625 33.75,10.5474375 L33.75,23.2036875 C33.75,24.366375 32.803875,25.3130625 31.640625,25.3130625 L31.640625,25.3130625 Z" id="path-1"></path>
    </defs>
    <g id="Chat-bubble" stroke="none" stroke-width="1" fill="none" fill-rule="evenodd">
        <g transform="translate(9.000000, 9.000000)">
            <circle id="Oval" fill="#FFFFFF" opacity="0.8" cx="31" cy="31" r="31"></circle>
            <g id="Communications-/-Chat" transform="translate(9.000000, 8.000000)">
                <g id="🎨Colour" transform="translate(5.625000, 6.750000)">
                    <mask id="mask-2" fill="white">
                        <use xlink:href="#path-1"></use>
                    </mask>
                    <use id="Mask" fill="#242424" xlink:href="#path-1"></use>
                    <g id="Solids/Primary/Metro-Teal" mask="url(#mask-2)" fill="#2BB6D6">
                        <g transform="translate(-5.625000, -6.750000)" id="colour/Metro-Teal">
                            <rect x="0" y="0" width="45" height="45"></rect>
                        </g>
                    </g>
                </g>
            </g>
        </g>
    </g>
</svg>