<svg id="Layer_1" data-name="Layer 1" xmlns="http://www.w3.org/2000/svg" xmlns:xlink="http://www.w3.org/1999/xlink" viewBox="0 0 535.99 805.21"><defs><style>.cls-1{fill:#d3d3d3;}.cls-2{fill:#f7f8fc;}.cls-3{fill:#fff;}.cls-4{fill:#989897;}.cls-5{fill:#eef0f0;}.cls-6{fill:#d69970;}.cls-7{fill:#3f66a0;}.cls-8{fill:#152e54;}.cls-9{fill:#80d0d8;}.cls-10{fill:url(#linear-gradient);}.cls-11{fill:#010101;}.cls-12{fill:#f26d7c;}.cls-13{fill:#0b1623;}.cls-14{fill:#2c4f7a;}.cls-15{fill:#225063;}.cls-16{fill:#2f5e6d;}.cls-17{fill:#1a435b;}</style><linearGradient id="linear-gradient" x1="-169.2" y1="240.96" x2="-127.59" y2="240.96" gradientTransform="matrix(0.87, 0.5, 0, 1.15, 612.74, -137.44)" gradientUnits="userSpaceOnUse"><stop offset="0" stop-color="#091535"/><stop offset="1" stop-color="#393e4a"/></linearGradient></defs><title>lock</title><polygon class="cls-1" points="437.44 577.18 426.27 570.39 415.98 580.33 429.48 593.35 437.44 577.18"/><polygon class="cls-2" points="46.2 800.48 23.31 787.64 23.31 777.68 60.8 792.14 46.2 800.48"/><polygon class="cls-2" points="151.73 327.32 129.41 314.87 116.49 326.41 139.45 345.23 151.73 327.32"/><path class="cls-2" d="M95.8,798.93h0c-37.12,21.43-67.22-1.32-67.22-50.81v-328c0-12,7.33-26,16.36-31.26l101.72-58.73c9-5.21,16.36.32,16.36,12.37v328C163,720,132.92,777.5,95.8,798.93Z" transform="translate(-28.58 -14.86)"/><path class="cls-1" d="M119.11,812h0C82,833.43,51.89,810.68,51.89,761.19v-328c0-12.05,7.33-26,16.36-31.26L170,343.23c9-5.21,16.36.32,16.36,12.37v328C186.33,733.07,156.23,790.57,119.11,812Z" transform="translate(-28.58 -14.86)"/><path class="cls-3" d="M167.13,355.3l-96,55.44c-5.81,3.35-10.51,12.34-10.51,20.07v325.6c0,43.09,26.2,62.9,58.52,44.24s58.52-68.73,58.52-111.82V363.24C177.63,355.5,172.93,352,167.13,355.3Z" transform="translate(-28.58 -14.86)"/><path class="cls-4" d="M159.25,369.72,79,416.07c-4.85,2.8-8.78,10.31-8.78,16.77v319.1c0,36,21.9,52.58,48.92,37S168,731.47,168,695.45V376.35C168,369.89,164.1,366.92,159.25,369.72Z" transform="translate(-28.58 -14.86)"/><path class="cls-5" d="M139.51,675.62c6.61,5.06,10.69,14.91,10.69,28.39,0,27.1-16.48,58.58-36.8,70.32-7.55,4.35-14.56,5.36-20.4,3.54,6.66,5.1,15.9,5.32,26.11-.57,20.33-11.74,36.8-43.22,36.8-70.32C155.91,690,149.4,678.72,139.51,675.62Z" transform="translate(-28.58 -14.86)"/><path class="cls-1" d="M113.4,774.33c20.32-11.74,36.8-43.22,36.8-70.32,0-13.48-4.08-23.33-10.69-28.39-5.84-1.82-12.85-.82-20.4,3.54-20.32,11.74-36.8,43.22-36.8,70.32,0,13.48,4.08,23.33,10.69,28.39C98.84,779.69,105.85,778.68,113.4,774.33Z" transform="translate(-28.58 -14.86)"/><polygon class="cls-3" points="104.52 681.01 174.53 721.95 145.72 782.94 77.42 743.13 104.52 681.01"/><path class="cls-3" d="M141.21,714c0,16.27-9.89,35.17-22.1,42.22S97,755.77,97,739.5s9.9-35.17,22.1-42.22S141.21,697.71,141.21,714Z" transform="translate(-28.58 -14.86)"/><path class="cls-6" d="M212.23,755.35c0,16.27-9.9,35.18-22.1,42.22s-22.1-.43-22.1-16.7,9.9-35.18,22.1-42.22S212.23,739.08,212.23,755.35Z" transform="translate(-28.58 -14.86)"/><path class="cls-1" d="M450.57,585.39,255.38,698.09h0l-70.12,40.4c-13.14,7.58-23.88,28.11-23.88,45.63h0c0,17.51,10.74,25.63,23.88,18l68.9-39.79v-.31l196.4-113.39c3.41-2,6.17-7.25,6.17-11.8V590.06C456.74,585.52,454,583.43,450.57,585.39Z" transform="translate(-28.58 -14.86)"/><polygon class="cls-1" points="141.01 788.49 153.05 795.28 157.48 788.06 152.51 781.03 141.01 788.49"/><path class="cls-3" d="M462.17,592.41l-193.93,112h0l-70.89,40.93c-13.14,7.58-23.88,28.11-23.88,45.62h0c0,17.51,10.74,25.63,23.88,18.05l72.08-42L462.17,655.7c3.41-2,6.18-7.26,6.18-11.8V597.08C468.35,592.53,465.58,590.44,462.17,592.41Z" transform="translate(-28.58 -14.86)"/><path class="cls-1" d="M219.1,765.33c0,11.78-7.16,25.45-16,30.55s-16-.31-16-12.09,7.16-25.45,16-30.55S219.1,753.56,219.1,765.33Z" transform="translate(-28.58 -14.86)"/><path class="cls-4" d="M210.09,764.84c0,4.17-2.54,9-5.67,10.82s-5.66-.11-5.66-4.28,2.54-9,5.66-10.83S210.09,760.66,210.09,764.84Z" transform="translate(-28.58 -14.86)"/><path class="cls-4" d="M204.56,789.16h0a1.45,1.45,0,0,1-1.45-1.45V769.55a1.45,1.45,0,0,1,1.45-1.44h0a1.45,1.45,0,0,1,1.44,1.44v18.16A1.45,1.45,0,0,1,204.56,789.16Z" transform="translate(-28.58 -14.86)"/><path class="cls-2" d="M88.47,466.06l4.69-2.71V446.76l-4,2.34V445a29.33,29.33,0,0,0,5.37-5.71l3.67-2.12v23.33l4-2.34v5.38l-13.72,7.92Z" transform="translate(-28.58 -14.86)"/><path class="cls-2" d="M112.3,453.89c5.5-10.1,9.37-17.26,9.37-21.33,0-2.8-1.18-3.65-3.06-2.57-1.56.9-2.75,3-3.83,5.15l-2.71-2c2.13-4.26,4.13-6.95,7.22-8.74,4.25-2.44,7.13-.49,7.13,5,0,4.84-3.4,11.95-6.89,18.85,1.09-.8,2.58-1.85,3.6-2.44l4.34-2.51v5.61l-15.17,8.76Z" transform="translate(-28.58 -14.86)"/><path class="cls-2" d="M139.05,434.51a4.09,4.09,0,0,0,4.72.17,6.49,6.49,0,0,0,3.5-5.41c0-2.53-1.13-3.47-5.81-.76v-4.7c3.87-2.24,5.09-4.48,5.09-6.79,0-2-1-2.61-2.65-1.63-1.52.88-2.68,2.49-4,4.86l-2.52-2.62c2-3.39,4.14-6.05,6.79-7.58,4.44-2.57,7.43-1.44,7.43,3.57a12.84,12.84,0,0,1-3.59,8.46v.18c2.47-.48,4.27.83,4.27,4.54,0,5.33-3.67,10.47-8,13-3.49,2-5.94,1.8-7.5.26Z" transform="translate(-28.58 -14.86)"/><path class="cls-2" d="M103.21,510.3l-2.48,1.43v6.88l-4.66,2.68v-6.87l-9.33,5.38v-4.56l7.88-21.81,6.11-3.53v16.77l2.48-1.43Zm-7.14-.94V504.7c0-1.86.14-4.69.21-6.54l-.14.08c-.54,1.9-1.15,3.88-1.77,5.86L91.52,512Z" transform="translate(-28.58 -14.86)"/><path class="cls-2" d="M114.06,503.22a4.14,4.14,0,0,0,4.66.16,7.37,7.37,0,0,0,3.63-6.57c0-2.9-1.39-3.63-3.4-2.47a9.47,9.47,0,0,0-3.19,3.29l-2.24-.61.61-14.86,12.22-7.05v5.6l-7.91,4.56-.37,5.6a8.82,8.82,0,0,1,2.42-2.08c3.69-2.13,6.84-1.15,6.84,5,0,6.37-3.69,12.17-7.9,14.6-3.53,2-5.91,1.65-7.6.37Z" transform="translate(-28.58 -14.86)"/><path class="cls-2" d="M149.78,468.45a2.94,2.94,0,0,0-3.36-.09c-2.39,1.37-4.28,4.73-4.45,11.52a13,13,0,0,1,4.31-5.52c3.69-2.13,6.41-.9,6.41,5.16s-3.26,11.5-7.16,13.76c-4.18,2.41-8.15.54-8.15-9.54,0-10.71,4.18-18,8.72-20.59,2.85-1.64,4.93-1.26,6.29-.18Zm-1.64,13.69c0-3-1.18-3.47-2.81-2.53-1.09.63-2.27,2.08-3.27,4.73.45,4.27,1.87,4.89,3.37,4S148.14,485.4,148.14,482.14Z" transform="translate(-28.58 -14.86)"/><path class="cls-2" d="M97.27,551.73l-9.68,5.59v-5.6l15-8.66v4.06c-5,10.93-5.7,16.72-6.07,28.15l-5,2.9A69.06,69.06,0,0,1,97.27,551.73Z" transform="translate(-28.58 -14.86)"/><path class="cls-2" d="M116.14,549.56v-.18c-1.67-.71-2.89-2.08-2.89-5.11a14.13,14.13,0,0,1,6.9-11.89c3.93-2.28,6.55-.66,6.55,4.08a15,15,0,0,1-2.82,7.91v.19c2.07.3,3.73,1.55,3.73,5.34,0,4.52-3,9.72-7.64,12.37-4.31,2.49-7.5,1.13-7.5-3.54C112.47,555.26,114.1,552.19,116.14,549.56Zm3.93,8a5.92,5.92,0,0,0,2.89-5.23c0-2.54-1.84-2.43-4.55-2.4a12.18,12.18,0,0,0-1.66,5.52C116.75,558,118.27,558.64,120.07,557.6Zm2.58-18.36c0-2.21-1-3.13-2.61-2.19a5.34,5.34,0,0,0-2.41,4.69c0,2.35,1.5,2.62,3.7,2.48A12.15,12.15,0,0,0,122.65,539.24Z" transform="translate(-28.58 -14.86)"/><path class="cls-2" d="M140.1,543.23a2.85,2.85,0,0,0,3.33.12c2.41-1.39,4.27-4.73,4.44-11.52a13.11,13.11,0,0,1-4.31,5.52c-3.66,2.12-6.42.9-6.42-5.15s3.27-11.52,7.17-13.78c4.17-2.4,8.18-.56,8.18,9.53,0,10.71-4.21,18-8.72,20.58-2.85,1.65-5,1.23-6.32.21Zm7.67-15.86c-.44-4.27-1.83-4.91-3.36-4s-2.72,3-2.72,6.23c0,3,1.23,3.45,2.86,2.51C145.63,531.45,146.82,530,147.77,527.37Z" transform="translate(-28.58 -14.86)"/><path class="cls-2" d="M96.8,609.93,107,604.06v5.72L96.8,615.66Z" transform="translate(-28.58 -14.86)"/><path class="cls-2" d="M116.6,602.58c0-9.77,3.09-16.57,7.71-19.23s7.7.57,7.7,10.33-3.09,16.79-7.7,19.46S116.6,612.35,116.6,602.58Zm10.69-6.17c0-7.87-1.29-8.88-3-7.9s-3,3.48-3,11.35,1.32,9.09,3,8.13S127.29,604.23,127.29,596.41Z" transform="translate(-28.58 -14.86)"/><polygon class="cls-7" points="128.67 578.22 116.97 584.98 116.97 571.23 128.67 564.48 128.67 578.22"/><path class="cls-7" d="M157.24,580.31l-1.81.91c0-.07.26-7.06-1.82-8.78-1.18-1-3.23.19-4.42,2.55-2.08,4.13-1.82,10.82-1.82,10.88l-1.8,1.18c0-.31-.31-7.76,2.3-12.95,1.89-3.75,5.17-5.64,7.06-4.08C157.54,572.2,157.25,580,157.24,580.31Z" transform="translate(-28.58 -14.86)"/><path class="cls-8" d="M152.6,588.89a2.88,2.88,0,0,1-1.2,2.3c-.66.38-1.2,0-1.2-.91a2.9,2.9,0,0,1,1.2-2.3C152.06,587.6,152.6,588,152.6,588.89Z" transform="translate(-28.58 -14.86)"/><path class="cls-2" d="M98.65,604.6v12.6c0,.77-.63,1.61-1.12,1.49L90.29,617c-.6-.14-.6-1.3,0-2.14l7.43-10.42C98.13,603.87,98.65,604,98.65,604.6Z" transform="translate(-28.58 -14.86)"/><path class="cls-9" d="M347,431.78l.62-3.4a44.41,44.41,0,0,0,7.88.71c.73,0,1.38,0,2.05,0l.16,3.46c-.74,0-1.39,0-2.21.05A47.56,47.56,0,0,1,347,431.78Zm20.39-4.28a44.54,44.54,0,0,0,9.25-3.69l1.63,3.05a48,48,0,0,1-10,4Zm-35.78-1.32-4.22-2.42,1.72-3,4.21,2.4a42.82,42.82,0,0,0,4.75,2.36l-1.35,3.18A49.47,49.47,0,0,1,331.6,426.18Zm53.92-7.56,8.93-5.26,1.76,3-8.93,5.26Zm-76.13-5.16,1.72-3,9,5.15-1.72,3Zm94-5.36,8.94-5.26,1.75,3-8.93,5.26Zm-112-4.94,1.72-3,9,5.15-1.72,3Zm129.85-5.58,8.93-5.26,1.75,3L423,400.56Zm-147.84-4.73,1.72-3,9,5.15-1.71,3Zm-18-10.3,1.72-3,9,5.15-1.71,3Zm-18-10.3,1.72-3,9,5.15-1.72,3Z" transform="translate(-28.58 -14.86)"/><path class="cls-9" d="M241.1,366.38a5.2,5.2,0,1,0,1.92,7.09A5.2,5.2,0,0,0,241.1,366.38Z" transform="translate(-28.58 -14.86)"/><path class="cls-9" d="M437,384.28a5.2,5.2,0,1,1-1.84,7.12A5.2,5.2,0,0,1,437,384.28Z" transform="translate(-28.58 -14.86)"/><path class="cls-2" d="M548,74.12,449,17a12.22,12.22,0,0,0-7.9-1.88l-.41-.27-1.25.72A8.67,8.67,0,0,0,437,17l-16,9.25,3.79,8.86v1.84l7.6,21.43v205.9c0,12.23,7.49,26.57,16.63,31.85l85,49.09,6.82,19.2,16-9.2v-.33c4.65-1.28,7.75-6.42,7.75-14.29V106C564.57,93.73,557.1,79.4,548,74.12Z" transform="translate(-28.58 -14.86)"/><path class="cls-4" d="M548.62,349.8c0,12.23-7.48,17.92-16.62,12.64l-98.94-57.11c-9.14-5.28-16.62-19.62-16.62-31.85V38.86c0-12.23,7.48-17.92,16.62-12.64L532,83.33c9.14,5.28,16.62,19.61,16.62,31.85Z" transform="translate(-28.58 -14.86)"/><polygon class="cls-3" points="398.95 37.57 398.95 259.06 506.89 321.38 506.89 99.89 398.95 37.57"/><path class="cls-1" d="M532,83.33,473.38,49.49l7.76,33.29,56.56,32.66V225.1l10.92,46.83V115.18C548.62,102.94,541.14,88.61,532,83.33Z" transform="translate(-28.58 -14.86)"/><path class="cls-10" d="M502.25,77c0,1.93-1.17,2.82-2.62,2L468.84,61.21a6.28,6.28,0,0,1-2.62-5h0c0-1.94,1.17-2.83,2.62-2L499.63,72a6.27,6.27,0,0,1,2.62,5Z" transform="translate(-28.58 -14.86)"/><path class="cls-11" d="M503.07,77.47A8.13,8.13,0,0,0,499.63,71L468.84,53.25c-1.9-1.1-3.45,0-3.45,2.47a8.12,8.12,0,0,0,3.45,6.44l30.79,17.77C501.53,81,503.07,79.93,503.07,77.47Zm-3.44-4.54a4.51,4.51,0,0,1,1.79,3.59c0,1.41-.81,2.08-1.79,1.51L468.84,60.26a4.49,4.49,0,0,1-1.8-3.59c0-1.41.81-2.09,1.8-1.52Z" transform="translate(-28.58 -14.86)"/><path class="cls-8" d="M444.12,168.07c1.41-.78,3.34-.66,5.49.57l20.63,11.91,9.7,5.59,10.95,6.33a17.53,17.53,0,0,1,7.9,13.71v47.9c0,3.4-1.61,5.39-4,5.6l13.72-7.47c1.75-.65,2.87-2.55,2.87-5.38V198.92c0-5-3.55-11.18-7.93-13.71l-23.51-13.58-9.7-5.6-8.05-4.64c-2.36-1.37-4.48-1.39-5.93-.34Z" transform="translate(-28.58 -14.86)"/><path class="cls-12" d="M443.86,168.92l.08,0-.07.06Z" transform="translate(-28.58 -14.86)"/><path class="cls-7" d="M443.87,168.24l.07-.06.17-.09c1.42-.78,3.36-.65,5.5.59l41.27,23.83a17.48,17.48,0,0,1,7.92,13.7v47.91c0,3.4-1.62,5.39-4,5.59a6.69,6.69,0,0,1-3.92-1l-41.27-23.82a17.5,17.5,0,0,1-7.91-13.71V173.25C441.7,170.82,442.53,169.11,443.87,168.24Z" transform="translate(-28.58 -14.86)"/><path class="cls-8" d="M468.33,212.52l-2,14.82,8,4.59-.25-2-1.77-15.18a3.65,3.65,0,0,0,2.57-.37v0h0c1.13-.65,1.84-2.05,1.84-4.08a14.26,14.26,0,0,0-6.43-11.15,5.85,5.85,0,0,0-2.08-.79c-2.55-.49-4.38,1.23-4.38,4.5A14.44,14.44,0,0,0,468.33,212.52Z" transform="translate(-28.58 -14.86)"/><path class="cls-13" d="M470.9,212.15l-2,14.82,5.14,3-1.77-15.18a3.65,3.65,0,0,0,2.57-.37v0h0c1.13-.65,1.84-2.05,1.84-4.08a14.26,14.26,0,0,0-6.43-11.15,5.85,5.85,0,0,0-2.08-.79c-1.14.68-1.81,2.11-1.81,4.1A14.38,14.38,0,0,0,470.9,212.15Z" transform="translate(-28.58 -14.86)"/><path class="cls-14" d="M457.46,152.8a.71.71,0,0,0,.12.57A.74.74,0,0,1,457.46,152.8Z" transform="translate(-28.58 -14.86)"/><path class="cls-15" d="M457.68,152.38s-.05,0-.06.07a5.57,5.57,0,0,0,1.25.13,5.26,5.26,0,0,0,1.29-.14v-7c0-8.11,4.32-12.58,10.45-12a14.45,14.45,0,0,1,8.45,2.24l.39.23c9.31,5.38,16.87,18.48,16.87,29.22v25.59a6.27,6.27,0,0,0,1.27.13,6,6,0,0,0,1.23-.13v-23c0-13.63-9.6-30.26-21.4-37.06l-.39-.22a20.14,20.14,0,0,0-8.44-2.86c-6.5.48-10.91,6-10.91,15.21Z" transform="translate(-28.58 -14.86)"/><path class="cls-16" d="M460.16,149.48v-4c0-8.11,4.32-12.58,10.45-12-5,.48-8.42,4.79-8.42,12l-.06,5.51C462.29,151.22,461.32,149.71,460.16,149.48Z" transform="translate(-28.58 -14.86)"/><path class="cls-17" d="M479.06,135.71l.39.23c9.31,5.38,16.87,18.48,16.87,29.22v22.6c-1.17.25-2,.82-2,1.49a34.18,34.18,0,0,1,0-4.19v-19.9c0-10.74-7.56-23.84-16.87-29.22l-.39-.23a16.6,16.6,0,0,0-6.42-2.24A14.45,14.45,0,0,1,479.06,135.71Z" transform="translate(-28.58 -14.86)"/><path class="cls-15" d="M497.59,187.63a5.4,5.4,0,0,1,1.23.13c1.19.23,2,.81,2,1.49s-.84,1.26-2,1.5a6,6,0,0,1-1.23.13,6.27,6.27,0,0,1-1.27-.13v-3A5.63,5.63,0,0,1,497.59,187.63Z" transform="translate(-28.58 -14.86)"/><path class="cls-17" d="M494.32,189.25c0-.67.83-1.24,2-1.49v3C495.15,190.5,494.32,189.92,494.32,189.25Z" transform="translate(-28.58 -14.86)"/><path class="cls-15" d="M455.64,150.71c.18-.58,1-1.06,2-1.27a6.26,6.26,0,0,1,1.19-.11,4.81,4.81,0,0,1,1.29.15v3a5.26,5.26,0,0,1-1.29.14,5.57,5.57,0,0,1-1.25-.13,2.44,2.44,0,0,1-2-1.25.64.64,0,0,1,0-.24A.66.66,0,0,1,455.64,150.71Z" transform="translate(-28.58 -14.86)"/><path class="cls-16" d="M462.13,151c0,.67-.81,1.24-2,1.48v-3C461.32,149.71,462.13,150.29,462.13,151Z" transform="translate(-28.58 -14.86)"/><path class="cls-17" d="M455.64,142.85v8.35a2.44,2.44,0,0,0,2,1.25s0,0,.06-.07v-9.53c0-9.23,4.41-14.73,10.91-15.21C461,127,455.64,132.69,455.64,142.85Z" transform="translate(-28.58 -14.86)"/><path class="cls-16" d="M468.59,127.64A20.14,20.14,0,0,1,477,130.5l.39.22c11.8,6.8,21.4,23.43,21.4,37.06v23c1.19-.24,2-.82,2-1.5V167.78c0-13.63-9.59-30.26-21.4-37.06l-.39-.22C475.26,128.31,471.69,127.4,468.59,127.64Z" transform="translate(-28.58 -14.86)"/></svg>